<?xml version="1.0" encoding="utf-8"?>
<!-- Generator: Adobe Illustrator 15.1.0, SVG Export Plug-In . SVG Version: 6.00 Build 0)  -->
<!DOCTYPE svg PUBLIC "-//W3C//DTD SVG 1.1//EN" "http://www.w3.org/Graphics/SVG/1.1/DTD/svg11.dtd">
<svg version="1.1" id="Layer_1" xmlns="http://www.w3.org/2000/svg" xmlns:xlink="http://www.w3.org/1999/xlink" x="0px" y="0px"
	 width="75px" height="75px" viewBox="0 0 75 75" enable-background="new 0 0 75 75" xml:space="preserve">
<g>
	<polygon fill="#EE2E2F" points="32.393,6.332 29.858,14.171 34.928,14.171 32.393,6.332 	"/>
	<polygon fill="#EE2E2F" points="37.501,6.332 34.965,14.171 40.036,14.171 37.501,6.332 	"/>
	<polygon fill="#EE2E2F" points="42.604,6.332 40.069,14.171 45.141,14.171 42.604,6.332 	"/>
	<polygon fill="#FFFFFF" points="11.165,15.905 10.951,16.048 8.323,22.415 8.323,16.136 8.091,15.905 4.121,15.905 3.89,16.136 
		3.89,35.764 4.121,35.995 8.091,35.995 8.323,35.764 8.323,28.687 8.792,27.476 11.556,35.836 11.776,35.995 15.898,35.995 
		16.115,35.683 11.854,24.187 15.81,16.24 15.603,15.905 11.165,15.905 	"/>
	<path fill="#FFFFFF" d="M21.654,15.523c-3.96,0-5.967,2.418-5.967,7.188v6.596c0,4.625,2.063,7.068,5.967,7.068
		c3.911,0,5.978-2.478,5.978-7.167v-6.498C27.632,17.941,25.62,15.523,21.654,15.523 M20.12,21.719c0-1.771,0.516-2.668,1.534-2.668
		c1.025,0,1.546,0.898,1.546,2.668v8.483c0,1.789-0.506,2.658-1.546,2.658c-1.019,0-1.534-0.894-1.534-2.658V21.719L20.12,21.719z"
		/>
	<polygon fill="#FFFFFF" points="36.198,15.894 35.967,16.126 35.967,25.245 32.105,16.036 31.891,15.894 29.034,15.894 
		28.803,16.126 28.803,35.763 29.034,35.995 32.447,35.995 32.679,35.763 32.679,26.09 36.528,35.849 36.744,35.995 39.492,35.995 
		39.723,35.763 39.723,16.126 39.492,15.894 36.198,15.894 	"/>
	<polygon fill="#FFFFFF" points="41.377,15.905 41.146,16.137 41.146,35.764 41.377,35.995 45.345,35.995 45.577,35.764 
		45.577,16.137 45.345,15.905 41.377,15.905 	"/>
	<polygon fill="#FFFFFF" points="54.395,15.894 54.163,16.126 54.163,25.245 50.302,16.036 50.088,15.894 47.232,15.894 47,16.126 
		47,35.763 47.232,35.995 50.645,35.995 50.876,35.763 50.876,26.09 54.725,35.849 54.94,35.995 57.688,35.995 57.92,35.763 
		57.92,16.126 57.688,15.894 54.395,15.894 	"/>
	<path fill="#FFFFFF" d="M70.891,25.435h-6.214l-0.232,0.231v2.846l0.232,0.232h2.015v1.338c0,1.836-0.531,2.767-1.579,2.767
		c-1.069,0-1.589-0.87-1.589-2.658v-8.473c0-0.66,0-2.668,1.589-2.668c1.396,0,1.589,1.456,1.589,3.028v1.374l0.231,0.232h3.795
		l0.232-0.232v-1.155c0-4.432-2.023-6.774-5.848-6.774c-3.995,0-6.021,2.418-6.021,7.189v6.913c0,3.114,1.371,6.752,5.236,6.752
		c1.226,0,2.507-0.602,3.267-1.503l0.354,0.969l0.218,0.153h2.726l0.232-0.231V25.667L70.891,25.435L70.891,25.435z"/>
	<polygon fill="#FFFFFF" points="17.3,37.715 17.098,37.899 16.285,46.132 15.235,37.893 15.034,37.715 12.776,37.715 
		12.575,37.893 11.506,46.167 10.729,37.9 10.528,37.715 7.907,37.715 7.706,37.946 9.811,53.165 10.011,53.341 12.642,53.341 
		12.842,53.162 13.895,44.789 14.968,53.163 15.169,53.341 17.798,53.341 17.999,53.165 20.129,37.947 19.929,37.715 17.3,37.715 	
		"/>
	<polygon fill="#FFFFFF" points="21.105,37.715 20.902,37.918 20.902,53.137 21.105,53.341 24.183,53.341 24.386,53.137 
		24.386,37.918 24.183,37.715 21.105,37.715 	"/>
	<polygon fill="#FFFFFF" points="29.273,50.82 29.273,37.918 29.07,37.715 25.993,37.715 25.79,37.918 25.79,53.137 25.993,53.34 
		32.097,53.34 32.3,53.137 32.3,51.023 32.097,50.82 29.273,50.82 	"/>
	<polygon fill="#FFFFFF" points="36.823,50.82 36.823,37.918 36.621,37.715 33.543,37.715 33.34,37.918 33.34,53.137 33.543,53.34 
		39.646,53.34 39.851,53.137 39.851,51.023 39.646,50.82 36.823,50.82 	"/>
	<polygon fill="#FFFFFF" points="41.094,37.715 40.891,37.918 40.891,53.137 41.094,53.341 47.443,53.341 47.646,53.137 
		47.646,51.023 47.443,50.82 44.374,50.82 44.374,46.542 46.488,46.542 46.69,46.339 46.69,44.176 46.488,43.973 44.374,43.973 
		44.374,40.234 47.443,40.234 47.646,40.032 47.646,37.918 47.443,37.715 41.094,37.715 	"/>
	<path fill="#FFFFFF" d="M56.017,37.715l-0.199,0.169l-1.544,8.943l-1.43-8.941l-0.201-0.171h-3.686l-0.204,0.203v15.218
		l0.204,0.204h2.274l0.202-0.203l0.054-8.499l1.479,8.533l0.2,0.169h2.301l0.198-0.174c0.251-1.642,0.575-3.526,0.889-5.347
		c0.168-0.977,0.339-1.971,0.5-2.938l0.052,8.255l0.203,0.203h2.267l0.203-0.204V37.918l-0.203-0.203H56.017L56.017,37.715z"/>
	<polygon fill="#FFFFFF" points="66.468,37.715 63.392,37.715 63.188,37.918 63.188,53.137 63.392,53.341 66.468,53.341 
		66.672,53.137 66.672,37.918 66.468,37.715 	"/>
	<path fill="#FFFFFF" d="M20.047,54.972c-2.071,0-3.121,1.272-3.121,3.781v3.397c0,2.465,1.079,3.77,3.121,3.77
		c1.937,0,2.98-1.277,3.018-3.695l0.005-0.866l-0.145-0.146h-2.03l-0.145,0.145v1.056c0.001,0.28,0.009,1.132-0.322,1.467
		c-0.101,0.1-0.225,0.148-0.382,0.148c-0.188,0-0.756,0-0.756-1.364v-4.43c0-0.91,0.254-1.37,0.756-1.37
		c0.609,0,0.692,0.773,0.692,1.609v0.946l0.146,0.146h2.04l0.145-0.146v-0.884C23.07,56.204,22.024,54.972,20.047,54.972"/>
	<path fill="#FFFFFF" d="M26.993,54.972c-2.085,0-3.142,1.272-3.142,3.781v3.448c0,2.433,1.086,3.719,3.142,3.719
		c2.06,0,3.15-1.305,3.15-3.77v-3.397C30.143,56.244,29.083,54.972,26.993,54.972 M27.777,62.669c0,0.919-0.256,1.366-0.784,1.366
		c-0.516,0-0.778-0.461-0.778-1.366v-4.435c0-0.91,0.262-1.37,0.778-1.37c0.521,0,0.784,0.46,0.784,1.37V62.669L27.777,62.669z"/>
	<polygon fill="#FFFFFF" points="31.085,55.172 30.939,55.316 30.939,65.576 31.085,65.72 35.2,65.72 35.345,65.576 35.345,64.15 
		35.2,64.006 33.305,64.006 33.305,55.316 33.159,55.172 31.085,55.172 	"/>
	<polygon fill="#FFFFFF" points="36.173,55.172 36.029,55.316 36.029,65.576 36.173,65.72 40.289,65.72 40.434,65.576 40.434,64.15 
		40.289,64.006 38.394,64.006 38.394,55.316 38.248,55.172 36.173,55.172 	"/>
	<polygon fill="#FFFFFF" points="41.263,55.172 41.117,55.316 41.117,65.576 41.263,65.72 45.543,65.72 45.688,65.576 45.688,64.15 
		45.543,64.006 43.482,64.006 43.482,61.138 44.899,61.138 45.045,60.993 45.045,59.534 44.899,59.389 43.482,59.389 43.482,56.886 
		45.543,56.886 45.688,56.74 45.688,55.316 45.543,55.172 41.263,55.172 	"/>
	<path fill="#FFFFFF" d="M49.23,60.153l-0.146,0.145v1.488l0.146,0.145h1.028v0.676c0,0.944-0.27,1.422-0.801,1.422
		c-0.2,0-0.807,0-0.807-1.364v-4.43c0-1.37,0.606-1.37,0.807-1.37c0.573,0,0.808,0.45,0.808,1.559v0.718l0.145,0.146h1.983
		l0.145-0.146v-0.604c0-2.332-1.064-3.564-3.08-3.564c-2.104,0-3.171,1.272-3.171,3.781v3.613c0,1.64,0.723,3.554,2.761,3.554
		c0.633,0,1.295-0.304,1.698-0.763l0.172,0.469l0.136,0.094h1.426l0.145-0.145v-5.277l-0.145-0.145H49.23L49.23,60.153z"/>
	<polygon fill="#FFFFFF" points="53.699,55.172 53.554,55.316 53.554,65.576 53.699,65.72 57.979,65.72 58.124,65.576 58.124,64.15 
		57.979,64.006 55.919,64.006 55.919,61.138 57.335,61.138 57.48,60.993 57.48,59.534 57.335,59.389 55.919,59.389 55.919,56.886 
		57.979,56.886 58.124,56.74 58.124,55.316 57.979,55.172 53.699,55.172 	"/>
</g>
</svg>
